<?xml version="1.0" encoding="UTF-8"?>
<svg width="257px" height="32px" viewBox="0 0 257 32" version="1.1" xmlns="http://www.w3.org/2000/svg" xmlns:xlink="http://www.w3.org/1999/xlink">
    <!-- Generator: Sketch 57 (83077) - https://sketch.com -->
    <title>画板</title>
    <desc>Created with Sketch.</desc>
    <g id="画板" stroke="none" stroke-width="1" fill="none" fill-rule="evenodd">
        <rect fill="#FFFFFF" x="0" y="0" width="257" height="32"></rect>
        <g id="编组-9">
            <g id="QQ备份" transform="translate(32.000000, 0.000000)">
                <rect id="Rectangle" fill="#000000" opacity="0" x="0" y="0" width="32" height="32"></rect>
                <g id="dribbble" transform="translate(4.000000, 4.000000)" fill="#1D1D1D" fill-rule="nonzero">
                    <path d="M22,11.9072356 C20.6666667,11.4990724 19.2222222,11.2764378 17.7407407,11.2764378 C16.8518519,11.2764378 16,11.3506494 15.1111111,11.4990724 C14.8148148,10.8311688 14.5555556,10.2003711 14.2592593,9.60667904 C18.3333333,7.89981447 19.8148148,5.71057514 19.8148148,5.71057514 C21.1481481,7.38033395 21.962963,9.56957328 22,11.9072356 M12,2 C14.5185185,2 16.8518519,2.92764378 18.6296296,4.52319109 C17.2962963,6.08163265 15.4074074,7.19480519 13.4444444,7.97402597 C11.5185185,4.41187384 9.66666667,2.25974026 9.66666667,2.25974026 C10.4074074,2.11131725 11.1851852,2 12,2 M7.66666667,2.96474954 C7.66666667,2.96474954 9.40740741,5.22820037 11.2962963,8.6419295 C6.7037037,9.9406308 2.18518519,9.86641929 2.18518519,9.86641929 C2.88888889,6.86085343 4.92592593,4.33766234 7.66666667,2.96474954 M2,12.0185529 L2,11.7588126 C6.2962963,11.7588126 9.62962963,11.2022263 12.2222222,10.3487941 L13,11.9814471 C9.40740741,13.1688312 6.44444444,15.580705 4.55555556,18.7346939 C2.96296296,16.9165121 2,14.6159555 2,12.0185529 M12,22 C9.7037037,22 7.62962963,21.2207792 5.96296296,19.9591837 C7.62962963,16.9536178 10.4074074,14.7272727 13.7407407,13.6883117 C14.6666667,16.025974 15.4814815,18.5862709 15.8518519,21.257885 C14.6666667,21.7773655 13.3333333,22 12,22 M17.5555556,20.3302412 C17.2222222,17.7328386 16.5925926,15.3580705 15.8148148,13.2059369 C16.4814815,13.1317254 17.0740741,13.0946197 17.7777778,13.0946197 C19.2222222,13.0946197 20.5925926,13.3172542 21.8888889,13.7625232 C21.3703704,16.471243 19.7777778,18.8460111 17.5555556,20.3302412" id="形状"></path>
                </g>
            </g>
            <g id="wechat" transform="translate(96.000000, 0.000000)">
                <rect id="Rectangle" fill="#FFFFFF" opacity="0" x="0" y="0" width="32" height="32"></rect>
                <path d="M21.471258,12.2683264 C21.6358969,12.2683264 21.8005358,12.2738589 21.9623842,12.2821577 C21.2815046,8.7219917 17.5450385,6 13.0356067,6 C8.04621051,6 4,9.33609959 4,13.4522822 C4,15.6957123 5.21665364,17.7178423 7.12255832,19.0843707 C7.27603527,19.1922545 7.37649291,19.3692946 7.37649291,19.571231 C7.37649291,19.637621 7.36254046,19.6984786 7.34579752,19.7621024 C7.19232057,20.3236515 6.94954794,21.2226833 6.93838598,21.264177 C6.91885255,21.3360996 6.89094765,21.4080221 6.89094765,21.4827109 C6.89094765,21.6459198 7.02489117,21.7814661 7.19232057,21.7814661 C7.25650184,21.7814661 7.30952115,21.7565698 7.36533095,21.7261411 L9.34378837,20.5947441 C9.49168434,20.5089903 9.65074227,20.4564315 9.82375265,20.4564315 C9.91304833,20.4564315 10.002344,20.4702628 10.0888492,20.4951591 C11.0125014,20.757953 12.0087063,20.9045643 13.0383971,20.9045643 C13.2058265,20.9045643 13.3704655,20.9017981 13.5351044,20.8934993 C13.3369796,20.3125864 13.230941,19.7012448 13.230941,19.0677732 C13.230941,15.3112033 16.9199687,12.2683264 21.471258,12.2683264 L21.471258,12.2683264 Z M16.0493359,9.87551867 C16.7134725,9.87551867 17.2548275,10.4094053 17.2548275,11.0677732 C17.2548275,11.7261411 16.716263,12.2600277 16.0493359,12.2600277 C15.3851992,12.2600277 14.8438442,11.7261411 14.8438442,11.0677732 C14.8438442,10.4094053 15.3851992,9.87551867 16.0493359,9.87551867 Z M10.0246679,12.2600277 C9.36053131,12.2600277 8.81917625,11.7261411 8.81917625,11.0677732 C8.81917625,10.4094053 9.35774082,9.87551867 10.0246679,9.87551867 C10.691595,9.87551867 11.2301596,10.4094053 11.2301596,11.0677732 C11.2301596,11.7261411 10.6888046,12.2600277 10.0246679,12.2600277 Z M26.3992633,23.7565698 C27.9870521,22.6168741 29,20.9349931 29,19.0622407 C29,15.6320885 25.6290881,12.8520055 21.4684675,12.8520055 C17.3106373,12.8520055 13.9369349,15.6320885 13.9369349,19.0622407 C13.9369349,22.4923928 17.3078469,25.2724758 21.4684675,25.2724758 C22.3279384,25.2724758 23.1595044,25.1507607 23.9268892,24.9322268 C23.9994419,24.9100968 24.0719946,24.8990318 24.1473379,24.8990318 C24.2924434,24.8990318 24.4235964,24.9432918 24.5463779,25.0124481 L26.1955575,25.9529737 C26.2429959,25.9806362 26.2876437,26 26.340663,26 C26.4076348,26 26.4718161,25.9751037 26.5192544,25.9280775 C26.5666927,25.8810512 26.5918071,25.8174274 26.5918071,25.7510373 C26.5918071,25.6901798 26.5666927,25.6293223 26.5527403,25.5684647 C26.5443688,25.5352697 26.340663,24.7856155 26.2123005,24.3153527 C26.198348,24.2627939 26.1871861,24.2102351 26.1871861,24.1576763 C26.1899766,23.9944675 26.2736913,23.8478562 26.3992633,23.7565698 Z M18.9626074,18.0719225 C18.4072999,18.0719225 17.958031,17.626556 17.958031,17.0788382 C17.958031,16.5311203 18.4072999,16.0857538 18.9626074,16.0857538 C19.5179149,16.0857538 19.9671838,16.5311203 19.9671838,17.0788382 C19.9671838,17.626556 19.5151245,18.0719225 18.9626074,18.0719225 Z M23.982699,18.0719225 C23.4273914,18.0719225 22.9781226,17.626556 22.9781226,17.0788382 C22.9781226,16.5311203 23.4273914,16.0857538 23.982699,16.0857538 C24.5380065,16.0857538 24.9872754,16.5311203 24.9872754,17.0788382 C24.9844849,17.626556 24.535216,18.0719225 23.982699,18.0719225 Z" id="Shape" fill="#1D1D1D" fill-rule="nonzero"></path>
            </g>
            <g id="zcool">
                <rect id="Rectangle" fill="#FFFFFF" opacity="0" x="0" y="0" width="32" height="32"></rect>
                <path d="M26.8401132,15.6914735 C26.1626196,16.0627532 25.1942145,16.2472525 24.3858351,16.3385545 C25.6680865,15.2608893 26.9128492,14.032971 27.4162184,12.4882586 C28.0990073,10.3926825 28.1197008,8.45009012 27.4810278,6.37529949 C27.4254769,6.19494437 27.2703242,6.06178229 27.0816785,6.03257977 C26.8912461,5.99987554 26.7043546,6.08205376 26.5946172,6.23571219 C24.9006719,8.62161058 22.6606059,10.1433529 20.2125001,10.5931805 C20.9442128,9.13739284 21.7512602,7.49415017 21.5771682,5.77637527 C21.5577742,5.58644662 21.4295198,5.42437117 21.2461368,5.36108304 C21.0640858,5.29808405 20.8604641,5.34418479 20.724673,5.48075224 C18.1293411,8.09442366 16.0576496,8.64602635 13.5557471,8.68852898 C10.7933402,8.73559352 8.15525676,9.99512374 6.31895815,12.1446715 C4.49763555,14.2756826 3.69143269,17.0243473 4.10708993,19.6860791 C4.77487031,23.9689189 8.00669869,27.1741898 12.3409365,27.8514692 C12.8879342,27.9368921 13.4301241,27.9786559 13.9639001,27.9786559 C17.5236737,27.9786559 20.7180459,26.1168282 22.5433317,22.8823227 C22.7513715,22.5144162 23.0929934,22.1532883 23.4804528,21.8906586 C25.242716,20.6982395 26.5174632,19.1549407 27.2681151,17.3021725 C27.3717127,17.0460965 27.4479571,16.730716 27.5145208,16.4523767 L27.5661084,16.2424979 C27.6150322,16.0522158 27.5440829,15.8510431 27.3862664,15.7316309 C27.2284498,15.6122509 27.0137829,15.596991 26.8401132,15.6914735 Z M5.13020117,18.9583299 C5.54848977,20.2590456 8.1195872,20.6945129 8.1195872,20.6945129 C5.97340549,22.9748133 5.13020117,18.9583299 5.13020117,18.9583299 Z M11.3390709,20.6945129 C11.3390709,20.6945129 16.5861628,20.0945928 18.6767936,18.3068797 C18.6767936,18.3068797 15.6318567,25.1731604 11.3390709,20.6945129 Z" id="Shape" fill="#1D1D1D" fill-rule="nonzero"></path>
            </g>
            <g id="email" transform="translate(128.000000, 0.000000)">
                <rect id="Rectangle" fill="#FFFFFF" opacity="0" x="0" y="0" width="32" height="32"></rect>
                <path d="M27.4970537,7.2437225 C27.0974439,6.83943598 26.6179122,6.67772138 25.9785366,6.67772138 L6.07797074,6.67772138 C5.43859512,6.67772138 4.9990244,6.839436 4.55945365,7.2437225 C4.1198829,7.64800901 4,8.13315286 4,8.73958264 L4,23.0108968 C4,23.6577552 4.11988293,24.2237563 4.55945365,24.6280429 C4.95906341,25.0323294 5.43859512,25.3153299 6.07797074,25.3153299 L25.9385756,25.3153299 C26.5779512,25.3153299 27.017522,25.0323294 27.4570927,24.6280429 C27.8567024,24.2237563 27.9765854,23.6173266 27.9765854,23.0108968 L27.9765854,8.73958264 C28.0165463,8.13315286 27.8966634,7.64800903 27.4970537,7.2437225 Z M25.6588488,9.30558376 L16.3879024,15.8145967 C16.1880976,15.9763113 15.9083707,15.9358827 15.7085658,15.8145967 L6.39765854,9.30558376 C6.1179317,9.14386914 6.07797074,8.78001127 6.27777561,8.53743936 C6.47758048,8.29486745 6.83722926,8.25443879 7.07699511,8.4161534 L16.0282537,14.6825945 L24.9795122,8.4161534 C25.259239,8.21401015 25.6188878,8.29486745 25.7787317,8.53743936 C26.0184976,8.78001127 25.9385756,9.14386914 25.6588488,9.30558376 Z" id="Shape" fill="#1D1D1D" fill-rule="nonzero"></path>
            </g>
            <g id="weibo" transform="translate(64.000000, 0.000000)" fill="#000000" fill-rule="nonzero">
                <rect id="矩形" opacity="0" x="0" y="0" width="32" height="32"></rect>
                <path d="M14.9170086,16.8857883 C12.9465652,16.3800781 10.7214978,17.3486417 9.86503484,19.0629135 C8.99410466,20.8114707 9.83610029,22.7514549 11.8267979,23.3857355 C13.8869384,24.042873 16.3174412,23.0371669 17.1623303,21.1486108 C17.9927521,19.3029115 16.9540015,17.4057841 14.9170086,16.8857883 L14.9170086,16.8857883 Z M13.4124116,21.3486092 C13.0131147,21.9800326 12.1537584,22.2543161 11.5085177,21.965747 C10.8719575,21.6800351 10.6838828,20.9457553 11.0860732,20.3314746 C11.4824766,19.720051 12.310005,19.4457675 12.9494587,19.7114796 C13.5975928,19.982906 13.8059216,20.7114715 13.4124116,21.3486092 L13.4124116,21.3486092 Z M14.728934,19.6771942 C14.5842612,19.9229065 14.2630876,20.0400484 14.0142504,19.9371921 C13.7683067,19.8371929 13.6901834,19.5629094 13.8290692,19.3229114 C13.973742,19.0829133 14.2804483,18.9686285 14.5263921,19.0629135 C14.7781227,19.1543413 14.8678199,19.4314819 14.728934,19.6771942 L14.728934,19.6771942 Z M24.4075435,14.0429542 C24.8415619,14.180096 25.3045148,13.9458122 25.4462942,13.5201013 C25.7877219,12.4743955 25.5736062,11.2801195 24.7750124,10.4058409 C23.9764186,9.53156228 22.7958887,9.19727928 21.7079493,9.42584885 C21.2623571,9.5201338 20.9787985,9.95155887 21.0742825,10.3915553 C21.1697665,10.8286946 21.6066784,11.1115495 22.0522705,11.0144074 C22.5846664,10.9029797 23.1604641,11.0658355 23.5539741,11.4915464 C23.9445906,11.9201143 24.0516485,12.5029667 23.8809346,13.0143911 C23.7391553,13.4458162 23.9735252,13.9029554 24.4075435,14.0429542 L24.4075435,14.0429542 Z M27.2952124,8.15728772 C25.654623,6.36015946 23.2328005,5.67445074 20.9961592,6.14301836 C20.4782306,6.25158891 20.1483766,6.75444197 20.2612214,7.26586639 C20.3711727,7.77729081 20.880421,8.10300245 21.3983495,7.9944319 C22.9897502,7.6601489 24.7084629,8.14871636 25.8774191,9.42584885 C27.0434817,10.7029813 27.3588684,12.4458243 26.861194,13.9715262 C26.6991605,14.4686651 26.9740388,15.0000893 27.4775001,15.1629451 C27.9809614,15.3229438 28.5191442,15.0515175 28.6811777,14.5572358 L28.6811777,14.5543786 C29.3785006,12.4001104 28.9386953,9.95155887 27.2952124,8.15728772 L27.2952124,8.15728772 Z M22.7785279,15.6286556 C22.4255263,15.5257993 22.1853695,15.4543713 22.3705507,14.9972322 C22.7698476,14.0058117 22.810356,13.1486758 22.379231,12.5401093 C21.5690634,11.3944043 19.3468894,11.4572609 16.8006483,12.508681 C16.8006483,12.508681 16.0020545,12.8543924 16.2045964,12.2286832 C16.595213,10.9858362 16.5373438,9.94584463 15.9268247,9.34299238 C14.5466463,7.97728919 10.8748509,9.39442054 7.72387758,12.5029667 C5.36860458,14.8315192 4,17.3000706 4,19.434339 C4,23.517163 9.30081097,26 14.4887772,26 C21.2883982,26 25.8108696,22.1000317 25.8108696,19.0000568 C25.8108696,17.1286435 24.213682,16.0686521 22.7785279,15.6286556 Z M14.5032444,24.5371547 C10.3656027,24.9400086 6.79218482,23.0943093 6.52309343,20.4086168 C6.25400204,17.7257815 9.39340155,15.2229446 13.5310433,14.8200908 C17.6686851,14.4143798 21.2421029,16.2629362 21.5111943,18.9457716 C21.7773922,21.6286069 18.6408862,24.1314437 14.5032444,24.5371547 Z" id="形状"></path>
            </g>
        </g>
        <g id="logo" transform="translate(160.000000, 0.000000)" fill="#000000" fill-rule="nonzero">
            <path d="M13.6452703,2.59966216 L12.3800676,5.14189189 C11.6942533,4.45607765 10.5906608,4.11317568 9.06925676,4.11317568 C7.62668198,4.11317568 6.44426137,4.71818089 5.52195946,5.92820946 C4.59965755,7.13823803 4.13851351,8.66947272 4.13851351,10.5219595 C4.13851351,12.3744462 4.56615563,13.8445892 5.4214527,14.9324324 C6.27674977,16.0202757 7.41778566,16.5641892 8.84459459,16.5641892 C10.4763595,16.5641892 11.7533738,15.9808617 12.6756757,14.8141892 L14.1064189,17.2972973 C12.8530343,18.6295112 11.0163409,19.2956081 8.59628378,19.2956081 C6.17622664,19.2956081 4.29617787,18.4994449 2.95608108,16.9070946 C1.61598429,15.3147443 0.945945946,13.1430318 0.945945946,10.3918919 C0.945945946,7.82994215 1.68890023,5.68779014 3.17483108,3.96537162 C4.66076193,2.2429531 6.56248841,1.38175676 8.88006757,1.38175676 C10.866564,1.38175676 12.454949,1.78772117 13.6452703,2.59966216 Z M25.3631757,19 L25.3631757,11.1959459 C25.3631757,10.4155366 25.1188087,9.78885372 24.6300676,9.31587838 C24.1413264,8.84290304 23.5028193,8.60641892 22.714527,8.60641892 C22.2257858,8.60641892 21.7331106,8.73845589 21.2364865,9.00253378 C20.7398624,9.26661168 20.3851362,9.56812894 20.1722973,9.90709459 L20.1722973,19 L17.1689189,19 L17.1689189,1.61824324 L20.1722973,0.908783784 L20.1722973,7.1402027 C20.9369408,6.44650554 21.9892951,6.09966216 23.3293919,6.09966216 C24.9138593,6.09966216 26.1435767,6.53912849 27.0185811,7.41807432 C27.8935855,8.29702016 28.3310811,9.55629811 28.3310811,11.1959459 L28.3310811,19 L25.3631757,19 Z M34.597973,1.42905405 C35.0709483,1.42905405 35.474942,1.59656364 35.8099662,1.93158784 C36.1449904,2.26661204 36.3125,2.67060574 36.3125,3.14358108 C36.3125,3.61655642 36.1449904,4.02055013 35.8099662,4.35557432 C35.474942,4.69059852 35.0709483,4.85810811 34.597973,4.85810811 C34.1249976,4.85810811 33.7210039,4.69059852 33.3859797,4.35557432 C33.0509555,4.02055013 32.8834459,3.61655642 32.8834459,3.14358108 C32.8834459,2.67060574 33.0509555,2.26661204 33.3859797,1.93158784 C33.7210039,1.59656364 34.1249976,1.42905405 34.597973,1.42905405 Z M33.0726351,19 L33.0726351,8.76013514 L31.4527027,8.76013514 L31.4527027,6.33614865 L36.0641892,6.33614865 L36.0641892,19 L33.0726351,19 Z M45.8665541,21.0337838 C45.5512372,21.8772565 44.8752867,22.5768553 43.8386824,23.1326014 C42.8020782,23.6883474 41.5940384,23.9662162 40.214527,23.9662162 L40.214527,21.3530405 C42.4926916,21.3530405 43.6317568,20.7815372 43.6317568,19.6385135 C43.6317568,18.881753 43.3164446,17.7229808 42.6858108,16.1621622 L38.7246622,6.33614865 L41.7871622,6.33614865 L45.2398649,15.0861486 L48.3496622,6.33614865 L51.4121622,6.33614865 L45.8665541,21.0337838 Z M62.1013514,19.0118243 L62.1013514,17.9476351 C61.6835565,18.3023666 61.1081118,18.6058546 60.375,18.8581081 C59.6418882,19.1103616 58.9679085,19.2364865 58.3530405,19.2364865 C55.4127105,19.2364865 53.9425676,17.6756913 53.9425676,14.5540541 L53.9425676,6.33614865 L56.8986486,6.33614865 L56.8986486,14.3293919 C56.8986486,15.9532739 57.627808,16.7652027 59.0861486,16.7652027 C59.756197,16.7652027 60.3789386,16.591781 60.9543919,16.2449324 C61.5298452,15.8980839 61.9121612,15.4960608 62.1013514,15.0388514 L62.1013514,6.33614865 L65.0574324,6.33614865 L65.0574324,19.0118243 L62.1013514,19.0118243 Z M77.1655405,19.0118243 L77.1655405,17.9476351 C76.7477457,18.3023666 76.172301,18.6058546 75.4391892,18.8581081 C74.7060774,19.1103616 74.0320977,19.2364865 73.4172297,19.2364865 C70.4768997,19.2364865 69.0067568,17.6756913 69.0067568,14.5540541 L69.0067568,6.33614865 L71.9628378,6.33614865 L71.9628378,14.3293919 C71.9628378,15.9532739 72.6919972,16.7652027 74.1503378,16.7652027 C74.8203862,16.7652027 75.4431278,16.591781 76.0185811,16.2449324 C76.5940344,15.8980839 76.9763504,15.4960608 77.1655405,15.0388514 L77.1655405,6.33614865 L80.1216216,6.33614865 L80.1216216,19.0118243 L77.1655405,19.0118243 Z M92.5844595,17.4510135 C92.5844595,16.8597943 92.7913831,16.3572656 93.2052365,15.9434122 C93.6190899,15.5295587 94.1216187,15.3226351 94.7128378,15.3226351 C95.304057,15.3226351 95.8065858,15.5295587 96.2204392,15.9434122 C96.6342926,16.3572656 96.8412162,16.8597943 96.8412162,17.4510135 C96.8412162,18.0422327 96.6342926,18.5467321 96.2204392,18.964527 C95.8065858,19.3823219 95.304057,19.5912162 94.7128378,19.5912162 C94.1216187,19.5912162 93.6190899,19.3823219 93.2052365,18.964527 C92.7913831,18.5467321 92.5844595,18.0422327 92.5844595,17.4510135 Z" id="形状结合"></path>
        </g>
    </g>
</svg>