<svg xmlns="http://www.w3.org/2000/svg" viewBox="0 0 250.32 359.82"><defs><style>.cls-1{fill:#fff;}.cls-2{isolation:isolate;}.cls-3{fill:#040000;}</style></defs><title>smile</title><g id="图层_2" data-name="图层 2"><g id="smile"><path class="cls-1" d="M41.92,111.43h0a7.13,7.13,0,0,1-7.16,4l-1.58-.17a18.6,18.6,0,0,0-19.8,13.27h0A13.24,13.24,0,0,0,20,144l18.75,9.65a13.28,13.28,0,0,1,5.71,5.73l27.19,44.3a24.88,24.88,0,0,0,5.47,5.22c3.34,2.87,3.74,11.05-2.91,23.78-2.83,5.42-3.35,11.37-5.21,15.6-3.3,7.47-.89,15.11,7,17.13l28.74,7.36a12.93,12.93,0,0,0,3.28.41l75.83,61.91c8.07,0,18.16-57.85,17-65.83l-26-22.43a13.08,13.08,0,0,0-.44-1.95c-2.23-7.31-9.38-30.91,5-41.14,15.93-11.34,18.82-34.39,21.12-39.3.62-1.33,2.29-4.06,2.44-5.52l15.89-6.35c9.45-3.7,17.32-8.77,19-18.78l-3.62-18.42s-24.57,4-25.81-2.23L198.16,83.58A13.24,13.24,0,0,0,189,73.36L161,55.73c-1.86-.56-18.72,4.09-20.64,4.37l-61,9A13.26,13.26,0,0,0,70.92,74L43.4,109.07A14.14,14.14,0,0,0,41.92,111.43Z"/><g class="cls-2"><path class="cls-3" d="M112,112.76a38.7,38.7,0,0,0-16.77-4.34A38.65,38.65,0,0,1,112,112.76Zm-33-.42s.35-.2,1-.49C79.28,112.14,78.94,112.33,78.93,112.34Z"/><path d="M95.18,104.42A40.16,40.16,0,0,0,77,108.85a4,4,0,0,0,2,7.48,4,4,0,0,0,2-.51,32.59,32.59,0,0,1,14.29-3.4,34.69,34.69,0,0,1,15,3.93,4,4,0,1,0,4-6.95,42.39,42.39,0,0,0-19-5Z"/></g><g class="cls-2"><path class="cls-3" d="M142.2,110.64a38.84,38.84,0,0,1,17-4.45,38.89,38.89,0,0,0-17,4.45Zm33.23-.53a36.64,36.64,0,0,0-16.21-3.92A36.46,36.46,0,0,1,175.43,110.11Zm-16.21-3.92Zm0,0Z"/><path d="M159.18,102.19a42.44,42.44,0,0,0-19,5,4,4,0,0,0,4,7,34.58,34.58,0,0,1,15-3.94,32.53,32.53,0,0,1,14.29,3.4,4,4,0,0,0,3.93-7,40.16,40.16,0,0,0-18.22-4.43Z"/></g><g class="cls-2"><path class="cls-3" d="M140,142.75Zm-73.84-1.89c0-8.49,11.52-15.41,25.68-15.41h0c-14.16,0-25.68,6.92-25.68,15.41v0Zm125.19,0c0-8.49-11.52-15.41-25.68-15.41h0C179.84,125.45,191.36,132.37,191.36,140.86Zm-51.2-3.17-2.4-1.15a21.46,21.46,0,0,0-9.33-2.22,19.43,19.43,0,0,0-5.38.76,19.19,19.19,0,0,1,5.42-.79,21,21,0,0,1,8.63,1.94l3,1.36,1.74-2.48A10.52,10.52,0,0,0,140,140ZM117.48,140a10.7,10.7,0,0,0-2-5.11l1.89,2.64,2.37-1.1-2.43,1.25ZM115,134.2c-2.78-3.46-7.65-6.21-13.63-7.65C107.25,128,112.16,130.66,115,134.2Zm28.49-1.09c3.67-3.78,9.81-6.43,16.87-7.32C153.17,126.7,147.09,129.42,143.49,133.11Zm22.06-7.66Zm0,0Zm-73.65,0Zm73.66,0Zm-73.67,0Zm73.69,0Zm-73.71,0Zm0,0Zm73.75,0Z"/><path d="M165.68,121.45c-12.09,0-22.26,4.5-26.93,11.14a24.8,24.8,0,0,0-10.28-2.3,23.2,23.2,0,0,0-9.77,2.17c-4.71-6.56-14.84-11-26.85-11-16.64,0-29.68,8.53-29.68,19.41v1.89a29.68,29.68,0,0,0,59.36,0v-1.89c0-.3,0-.59,0-.88a15.25,15.25,0,0,1,6.94-1.66,17.42,17.42,0,0,1,7.6,1.82c0,.24,0,.48,0,.72v1.89a29.68,29.68,0,1,0,59.35,0v-1.89c0-10.88-13-19.41-29.68-19.41Zm0,43A21.7,21.7,0,0,1,144,142.75v-1.89c0-5.4,8.9-11.41,21.67-11.41s21.68,6,21.68,11.41v1.89a21.71,21.71,0,0,1-21.68,21.68Zm-73.83,0a21.71,21.71,0,0,1-21.68-21.68v-1.89c0-5.4,8.91-11.41,21.68-11.41s21.68,6,21.68,11.41v1.89a21.71,21.71,0,0,1-21.68,21.68Z"/></g><g class="cls-2"><path class="cls-3" d="M125.74,175.43a8.68,8.68,0,0,1-2.48-3.79A8.68,8.68,0,0,0,125.74,175.43Zm2.93-15.09c.2-.17.35-.28.43-.34C129,160.06,128.87,160.17,128.67,160.34Z"/><path d="M129.1,156a4,4,0,0,0-2.4.8c-1.41,1.06-8.39,6.69-7.66,14,.47,4.7,3.86,8.58,10.09,11.55a3.89,3.89,0,0,0,1.72.39,4,4,0,0,0,1.72-7.61c-3.42-1.63-5.4-3.45-5.57-5.12-.23-2.34,2.64-5.42,4.5-6.82a4,4,0,0,0-2.4-7.2Z"/></g><g class="cls-2"><path class="cls-3" d="M131.34,203.45a20.79,20.79,0,0,1-3.4-.29,21.82,21.82,0,0,0,3.29.26A17.82,17.82,0,0,0,142,199.88,17.64,17.64,0,0,1,131.34,203.45Zm-12.47-3.68Z"/><path d="M142.2,195.75a4,4,0,0,0-2.41.81,13.89,13.89,0,0,1-8.56,2.86,20.51,20.51,0,0,1-10.18-3,4,4,0,0,0-5.53,1.13,4,4,0,0,0,1.12,5.55,29.13,29.13,0,0,0,14.7,4.36,21.58,21.58,0,0,0,13.28-4.51,4,4,0,0,0-2.42-7.19Z"/></g><g class="cls-2"><path class="cls-3" d="M81.85,146.92a15.84,15.84,0,0,1,4.64-3.09,17.17,17.17,0,0,0-4.62,3.09h0Zm20.87-1.43a17.42,17.42,0,0,0-8.29-3.07A17.33,17.33,0,0,1,102.72,145.49Z"/><path d="M93.17,138.36A20.73,20.73,0,0,0,79,144.12a4,4,0,0,0,5.64,5.66,12.77,12.77,0,0,1,8.42-3.42A13.23,13.23,0,0,1,100.8,149a4,4,0,1,0,4.6-6.55,21.05,21.05,0,0,0-12.23-4.12Z"/></g><g class="cls-2"><path class="cls-3" d="M155.18,146.94a15,15,0,0,1,3.72-2.66,16.28,16.28,0,0,0-3.72,2.66Zm21-1.37a17.84,17.84,0,0,0-8.13-3.13A17.74,17.74,0,0,1,176.18,145.57Z"/><path d="M166.5,138.36a20.75,20.75,0,0,0-14.15,5.76,4,4,0,1,0,5.67,5.64,12.67,12.67,0,0,1,8.39-3.4,13.3,13.3,0,0,1,7.73,2.67,4,4,0,1,0,4.59-6.55,21,21,0,0,0-12.23-4.12Z"/></g><g class="cls-2"><path class="cls-3" d="M118.94,355.82c-56.11,0-102.6-16.16-113-39.29a22.71,22.71,0,0,1-1.43-13.67c4.77-24,31.09-46.2,62.61-52.88l1.51-.32.91-1.26c.6-.83,1.15-1.67,1.67-2.52l-1,1.77,1.53,2.13c10,14,25.76,20.77,48.08,20.77,1.83,0,3.73-.05,5.65-.14,26.22-1.22,40.9-6.75,50.67-19.08l1.67-2.11-1.32-2.34a45.35,45.35,0,0,1-5.26-26.46l.58-6,.34.11c-1.39,6.44-2.86,19.81,4.53,32.7l1,1.76,2,.23c33.48,3.74,61.22,30.33,66.12,52.81a23.57,23.57,0,0,1-1.65,15.44c-11,22.24-56.59,36.92-119,38.32-2,.05-4.1.07-6.15.07Zm48.9-62.61A10.61,10.61,0,0,0,157,304.08c0,9.05,15.5,19,20.68,19h0c1.53,0,4-.52,8.12-5s8.54-11.56,8-17.16a9.9,9.9,0,0,0-9.89-9,10.86,10.86,0,0,0-8.31,4A13.34,13.34,0,0,0,167.84,293.21ZM76.81,231a49.75,49.75,0,0,0-.42-19l.46-.16.54,7A48.2,48.2,0,0,1,76.81,231Zm48.41-.89Zm-.07,0Zm0,0Zm.15,0Zm-.19,0Zm0,0a63.92,63.92,0,0,1-33.22-9.19A64.24,64.24,0,0,0,125,230.08Zm41.41-14.45a80.41,80.41,0,0,0,6.4-5.41l-3.19,3.1Zm-87.82-4.45-3.84-4.31a81.51,81.51,0,0,0,8.3,7.87Zm-18.7-25.64a141.09,141.09,0,0,1-10.48-25.73l-.74-2.46-.1,0-1.45-6c-1.25-5.09-2.3-10.37-3.12-15.7l-.28-1.81-1.55-1a16.27,16.27,0,0,0-4.29-3.56l5.45,2.57-.62-6.18C45.1,148.25,51.05,168.85,59.91,185.54Zm143-27.24c.45-1.63.88-3.28,1.27-5l-.89,4h-.1Zm14.39-4.52,1.27-.55Zm19.1-15.54Zm0,0a17.4,17.4,0,0,0,.81-13.84A17.4,17.4,0,0,1,236.4,138.22Zm-29.15-2.65q.44-4,.67-8l-.29,5.83-.13,0Zm6.06-5.33a17.51,17.51,0,0,0-2.89,2.68l-1.88.33Zm9.16-2a6.83,6.83,0,0,0-2.4-.41l-.71,0,.73,0a6.85,6.85,0,0,1,2.39.41l.17.07Zm-192.21,0a6.48,6.48,0,0,1,2.05-.36A6.78,6.78,0,0,0,30.26,128.17Zm11.89-8.91-2.09-1.09a14.81,14.81,0,0,0-2.61-1.35L42,118.4,42,117l.4,4.74C42.35,121.65,42.15,119.26,42.15,119.26Zm166,1.52c0-.77,0-1.53,0-2.3v1.39Zm4.06-2.54,1.07-.53q-.47.27-.87.54ZM48.38,116.75a15.86,15.86,0,0,1-1.67-.09l-4.8-.52-.22-3.69C39.47,74.05,44.8,45.64,57.52,28,69.46,11.45,105,4,126.41,4c20.24,0,49.22,8.66,62.68,23.14,17.46,18.8,19,48.62,19.09,85.65l-3.46-.47c-2.87-.39-8.91-4.52-11.83-10.09C190.43,97.53,188.2,91.15,186,85,181.62,72.33,178.87,65.1,174,63.46a17.38,17.38,0,0,0-5.56-.85c-6.73,0-14.32,3.2-21.66,6.29-6.37,2.68-12.95,5.46-17.76,5.52h-1.44a68.77,68.77,0,0,1-23.67-3.7c-4.31-1.36-8.39-2.65-14-2.65a42.51,42.51,0,0,0-5.48.37c-13.38,1.71-18,16.27-22,29.12-2,6.5-4,12.65-6.65,16C54,115.72,51.63,116.75,48.38,116.75Z"/><path d="M126.41,8c19,0,47.2,8.36,59.75,21.86,7.77,8.37,12.63,19.47,15.28,34.93,2.23,13,2.65,27.29,2.72,43.16a19.54,19.54,0,0,1-7.72-7.58c-2.33-4.44-4.51-10.68-6.62-16.71-4.57-13-7.58-21.66-14.61-24a21.52,21.52,0,0,0-6.82-1c-7.54,0-15.51,3.36-23.21,6.6-6,2.54-12.23,5.16-16.27,5.21h-1.38a64.23,64.23,0,0,1-22.46-3.52c-4.42-1.39-9-2.83-15.25-2.83a46.54,46.54,0,0,0-6,.4c-15.93,2-21.12,18.59-25.29,31.89-1.84,5.87-3.74,11.94-6,14.74-.39.49-1.3,1.64-4.2,1.64a10.83,10.83,0,0,1-1.25-.07l-1.42-.15,0-.31c-2.17-37.46,2.9-65,15.08-81.88C71.75,15.1,106.43,8,126.41,8m53.24,245.21c14.42,1.72,29,8.25,41,18.43,11,9.28,18.9,20.94,21.13,31.2a19.63,19.63,0,0,1-1.32,12.82c-5.22,10.53-19.35,19.49-40.86,25.9-20.24,6-46,9.55-74.63,10.19-2,.05-4,.07-6.06.07-25.7,0-50.78-3.61-70.62-10.18-20.24-6.69-34-16.19-38.79-26.76a18.66,18.66,0,0,1-1.14-11.24c2-10.34,8.75-20.93,18.87-29.83A89.52,89.52,0,0,1,67.9,253.89l1.56-.33c10.87,14.12,27.33,21,50.26,21,1.89,0,3.85-.05,5.84-.14,27.14-1.27,43.18-7.43,53.61-20.6l.48-.6M175.1,290.9a16.73,16.73,0,0,0-7.26-1.69A14.69,14.69,0,0,0,153,304.08c0,5.43,3.42,10.87,10.18,16.17,2.6,2,9.22,6.79,14.46,6.83h.07c3.59,0,7.1-2,11.05-6.35,1.65-1.81,9.87-11.33,9-20.22a13.88,13.88,0,0,0-13.87-12.66,14.44,14.44,0,0,0-8.84,3M126.41,0c-21,0-58.88,7.28-72.13,25.66-15.55,21.56-18.46,54.47-16.58,87a28.66,28.66,0,0,0-9.13-1.56,21.33,21.33,0,0,0-5.66.72,15.29,15.29,0,0,0-10.19,8.48c-3.53,7.62-3.11,15.23,1.21,22C21.12,153.56,37.7,159.87,45.6,161c5.85,19.48,14.73,36,26.07,48.43l-.09,0c.29.83,6.74,19.85-5.34,36.64C31,253.54,5.35,277.89.54,302.08a26.62,26.62,0,0,0,1.7,16.1c12.34,27.3,64.93,41.64,116.7,41.64q3.12,0,6.24-.07c54.78-1.23,109-13.32,122.48-40.54a27.5,27.5,0,0,0,2-18.07c-5.29-24.26-35-52.07-69.58-55.94-9.09-15.87-3.45-32.5-3.18-33.28h0c13.11-12.71,23.41-30.23,29.42-50.86,7.55-.77,25-7.12,32.42-18.74,4.32-6.76,4.74-14.37,1.21-22a15.31,15.31,0,0,0-10.2-8.48,21.26,21.26,0,0,0-5.65-.72,28.28,28.28,0,0,0-11.86,2.68c0-35.93-.84-68.59-20.16-89.38C177.25,8.52,146.68,0,126.41,0Zm1.12,78.43H129c11.35-.15,27.7-11.81,39.37-11.81a13.71,13.71,0,0,1,4.29.64c5.5,1.83,10.17,24.42,16.67,36.83,3.26,6.23,10.22,11.57,14.83,12.2v2.2c0,29.71-8.49,57.23-23.9,77.5-14.76,19.41-34.33,30.1-55.09,30.1-20.57,0-38.88-9.86-53-28.53s-23.36-45.91-25.92-76.47l0-.44a19.89,19.89,0,0,0,2.1.11,12.83,12.83,0,0,0,10.47-4.67c8.69-10.94,9-41.5,26-43.66a39.66,39.66,0,0,1,5-.34c11.87,0,15.9,6.35,37.71,6.35Zm84.92,43.8a3.86,3.86,0,0,0,2.24-.69,18.41,18.41,0,0,1,9.28-2.43,13.56,13.56,0,0,1,3.62.45,7.32,7.32,0,0,1,5,4.12c2.39,5.17,2.16,9.85-.69,14.32-5.07,7.92-16.89,12.95-23.49,14.56a150.65,150.65,0,0,0,2.68-15.72,4,4,0,0,0,2.31-1.3c2.47-2.83,5-3.74,6.63-3.74a2.83,2.83,0,0,1,1,.16c.42.15.62.34.62,1a4,4,0,0,0,8,0,8.84,8.84,0,0,0-5.81-8.48,10.73,10.73,0,0,0-3.79-.67,15.37,15.37,0,0,0-8.11,2.55c.07-1.37.12-2.74.15-4.13Zm-169.2,30.1c-6.72-1.83-17.74-6.76-22.58-14.33-2.85-4.47-3.08-9.15-.69-14.32a7.32,7.32,0,0,1,5-4.12,13.56,13.56,0,0,1,3.62-.45,18.37,18.37,0,0,1,9.27,2.43,3.09,3.09,0,0,0,.43.24c.1,1.17.21,2.34.33,3.49a14.59,14.59,0,0,0-6.16-1.47,10.67,10.67,0,0,0-3.78.67A8.84,8.84,0,0,0,22.92,133a4,4,0,0,0,8,0c0-.65.2-.84.61-1a2.93,2.93,0,0,1,1-.16c1.6,0,4.16.91,6.63,3.74a3.56,3.56,0,0,0,.9.75q1.27,8.27,3.18,16Zm76.47,114.22c-23.55,0-36.65-7.72-44.83-19.1a48.59,48.59,0,0,0,6.49-28.94,69.07,69.07,0,0,0,43.81,15.57c15.2,0,29.5-5.05,42-14a49.11,49.11,0,0,0,5.75,28.79c-8.7,11-22.16,16.38-47.72,17.58-1.88.09-3.7.13-5.46.13Zm56.75,35.78c1.69-4.61,4.72-6.48,7.47-6.48a5.89,5.89,0,0,1,5.91,5.4c.58,6.23-9,17.83-12.12,17.83h0c-3.29,0-16.7-8.65-16.7-15a6.63,6.63,0,0,1,6.82-6.87c2.83,0,6,1.54,8.63,5.12Z"/></g></g></g></svg>